<svg id="Group_11776" data-name="Group 11776" xmlns="http://www.w3.org/2000/svg" width="33.606" height="36.823" viewBox="0 0 33.606 36.823">
  <g id="Group_11427" data-name="Group 11427">
    <g id="Group_11418" data-name="Group 11418">
      <path id="Path_9840" data-name="Path 9840" d="M304.713,214.061a.593.593,0,0,1,.208.431q-.012,3.664-.013,7.328l-.553-.005q0-3.634-.007-7.268a.518.518,0,0,1,.221-.486Z" transform="translate(-287.472 -214.061)" fill="#00b4c9"/>
      <path id="Path_9841" data-name="Path 9841" d="M327.566,254.625a1.011,1.011,0,0,1,.534.972q-.017,14.915-.015,29.83c0,.559-.32.917-.8.908a.824.824,0,0,1-.78-.9c0-.072,0-.144,0-.215q0-14.771-.006-29.543a1.068,1.068,0,0,1,.527-1.051Z" transform="translate(-307.112 -250.025)" fill="#00b4c9"/>
      <path id="Path_9842" data-name="Path 9842" d="M300.391,282.438l.553.005a.954.954,0,0,1,.526.939q-.01,13.618-.011,27.235a.795.795,0,1,1-1.577-.011q0-13.653,0-27.307A.854.854,0,0,1,300.391,282.438Z" transform="translate(-283.508 -274.684)" fill="#00b4c9"/>
      <path id="Path_9843" data-name="Path 9843" d="M242.784,315.356a.836.836,0,0,1,.505.864q-.006,10.907,0,21.813c0,.585-.314.946-.8.935-.473-.011-.776-.369-.776-.933q0-10.907,0-21.814a.843.843,0,0,1,.506-.866Z" transform="translate(-231.933 -303.869)" fill="#00b4c9"/>
      <path id="Path_9844" data-name="Path 9844" d="M271.859,337.694a.752.752,0,0,1,.494.72c.006.071,0,.144,0,.215q0,10.139,0,20.279c0,.4-.058.774-.482.954a.78.78,0,0,1-1.1-.669c-.007-.071,0-.144,0-.215q0-10.139-.009-20.278c0-.425.032-.822.5-1.007A.854.854,0,0,1,271.859,337.694Z" transform="translate(-257.699 -323.626)" fill="#00b4c9"/>
      <path id="Path_9845" data-name="Path 9845" d="M213.625,363.493a1.046,1.046,0,0,1,.525,1.013q-.019,7.106-.008,14.213a2.646,2.646,0,0,1-.011.358.777.777,0,0,1-1.514.143,1.48,1.48,0,0,1-.061-.531q0-7.088-.006-14.177a1.042,1.042,0,0,1,.526-1.016Z" transform="translate(-206.084 -346.547)" fill="#00b4c9"/>
      <path id="Path_9846" data-name="Path 9846" d="M185.172,344.466a.8.8,0,0,1,.5.826q0,6.852,0,13.7c0,.568-.3.907-.789.906s-.789-.342-.789-.907q0-6.852,0-13.7a.8.8,0,0,1,.5-.827Z" transform="translate(-180.853 -329.677)" fill="#00b4c9"/>
      <path id="Path_9847" data-name="Path 9847" d="M360.686,246.457q0,8.058,0,16.115c0,.228.075.549-.274.557s-.288-.312-.289-.541q0-16.133,0-32.266c0-.084,0-.168,0-.251.01-.182.121-.242.289-.24s.255.063.269.224c.009.107.005.215.005.323Q360.686,238.418,360.686,246.457Z" transform="translate(-336.916 -228.043)" fill="#00b4c9"/>
      <path id="Path_9848" data-name="Path 9848" d="M157.124,327.974q0,2.531,0,5.062a1.815,1.815,0,0,1-.071.638.742.742,0,0,1-.838.519.781.781,0,0,1-.669-.691,2.193,2.193,0,0,1-.008-.251q0-5.277,0-10.554a.824.824,0,0,1,.321-.755.759.759,0,0,1,.814-.072.772.772,0,0,1,.45.721c.011.5.005,1,.005,1.508Q157.125,326.036,157.124,327.974Z" transform="translate(-155.535 -309.567)" fill="#00b4c9"/>
      <path id="Path_9849" data-name="Path 9849" d="M389.219,261.1q0-7.1,0-14.208c0-.108,0-.216.005-.323a.23.23,0,0,1,.26-.234.262.262,0,0,1,.284.222,2.073,2.073,0,0,1,.015.393q0,14.243.006,28.487c0,.222-.018.443-.284.449-.315.007-.286-.256-.286-.472Q389.219,268.255,389.219,261.1Z" transform="translate(-362.718 -242.674)" fill="#00b4c9"/>
      <path id="Path_9850" data-name="Path 9850" d="M417.718,284.325q0-5.616,0-11.233c0-.226-.08-.548.276-.553s.285.316.286.543q0,11.251,0,22.5a2.028,2.028,0,0,1-.007.287.268.268,0,0,1-.29.258.261.261,0,0,1-.26-.249,2.121,2.121,0,0,1-.009-.322Q417.718,289.941,417.718,284.325Z" transform="translate(-387.981 -265.908)" fill="#00b4c9"/>
      <path id="Path_9851" data-name="Path 9851" d="M275.782,232.668a.855.855,0,0,0-.591,0q.007-5.616.014-11.233c0-.586,0-1.172,0-1.758,0-.2-.055-.484.258-.494.33-.011.306.265.306.5q0,6.263,0,12.525C275.771,232.357,275.778,232.512,275.782,232.668Z" transform="translate(-261.622 -218.6)" fill="#00b4c9"/>
      <path id="Path_9852" data-name="Path 9852" d="M217.636,259.611l-.55,0c0-.753-.013-1.506-.013-2.259q0-5.2.006-10.4a1.11,1.11,0,0,1,.049-.459.246.246,0,0,1,.28-.167.232.232,0,0,1,.23.229c.006.059,0,.119,0,.179q0,6.385,0,12.77C217.643,259.539,217.639,259.575,217.636,259.611Z" transform="translate(-210.095 -242.665)" fill="#00b4c9"/>
      <path id="Path_9853" data-name="Path 9853" d="M446.861,327.96q0-2.85,0-5.7a1,1,0,0,1,.011-.249.272.272,0,0,1,.282-.227.258.258,0,0,1,.253.216,1.437,1.437,0,0,1,.019.32q0,5.665,0,11.33a1.376,1.376,0,0,1-.017.321.273.273,0,0,1-.286.223c-.169,0-.231-.107-.256-.245a1.37,1.37,0,0,1-.007-.25Q446.861,330.829,446.861,327.96Z" transform="translate(-413.821 -309.567)" fill="#00b4c9"/>
      <path id="Path_9854" data-name="Path 9854" d="M246.74,239.522h-.573q0-4.569,0-9.139a2.029,2.029,0,0,1,.019-.356.241.241,0,0,1,.287-.2c.157.008.247.079.255.238.006.107,0,.215,0,.322Q246.738,234.952,246.74,239.522Z" transform="translate(-235.889 -228.034)" fill="#00b4c9"/>
      <path id="Path_9855" data-name="Path 9855" d="M189.1,280.605h-.578q0-3.8.007-7.61a1.874,1.874,0,0,1,.01-.322.275.275,0,0,1,.545,0,1.836,1.836,0,0,1,.011.322Q189.094,276.8,189.1,280.605Z" transform="translate(-184.778 -265.816)" fill="#00b4c9"/>
      <path id="Path_9856" data-name="Path 9856" d="M331.579,223.167h-.539q-.007-1.826-.013-3.653c0-.2.058-.363.291-.371.258-.008.274.185.274.371Q331.588,221.341,331.579,223.167Z" transform="translate(-311.125 -218.567)" fill="#00b4c9"/>
    </g>
  </g>
</svg>
