<svg xmlns="http://www.w3.org/2000/svg" xmlns:xlink="http://www.w3.org/1999/xlink" width="43.977" height="45" viewBox="0 0 43.977 45"><defs><style>.a,.b{fill:none;}.b{stroke:#87d5eb;}.c{clip-path:url(#a);}.d{fill:rgba(0,158,221,0.8);}.e{clip-path:url(#b);}.f{fill:#009edd;}.g{clip-path:url(#c);}.h{fill:rgba(0,158,221,0.4);}.i{clip-path:url(#d);}.j{fill:rgba(0,158,221,0.6);}</style><clipPath id="a"><path class="a" d="M42.281-65.333c5.005-2.759,5.793-10.093,2.485-15.439C41.61-77.416,37.821-75.3,33.19-75.238,39.471-72.148,40.873-72.8,42.281-65.333Z"/></clipPath><clipPath id="b"><path class="a" d="M58.826-77.219c-2.695-5.693-9.859-6.59-15.08-2.826a19.363,19.363,0,0,1,5.4,13.168C52.17-74.022,51.531-75.616,58.826-77.219Z"/></clipPath><clipPath id="c"><path class="a" d="M47.217-94.667c-5.561,2.759-6.437,10.093-2.761,15.439a18.475,18.475,0,0,1,12.862-5.533C50.339-87.852,48.782-87.2,47.217-94.667Z"/></clipPath><clipPath id="d"><path class="a" d="M30.174-82.272c2.695,5.127,9.859,5.931,15.08,2.544a16.579,16.579,0,0,1-5.4-11.85C36.83-85.149,37.469-83.714,30.174-82.272Z"/></clipPath></defs><g transform="translate(-22.512 102.5)"><g transform="translate(23.012 -102)"><path class="b" d="M21.488,44A21.749,21.749,0,0,0,42.977,22,21.749,21.749,0,0,0,21.488,0,21.749,21.749,0,0,0,0,22,21.749,21.749,0,0,0,21.488,44Z"/></g><g class="c"><path class="d" d="M32.19-81.772H49.074v17.439H32.19Z"/></g><g class="e"><path class="f" d="M42.746-84.809h17.08v18.932H42.746Z"/></g><g class="g"><path class="h" d="M39.78-95.667H58.318v17.439H39.78Z"/></g><g class="i"><path class="j" d="M29.174-92.579h17.08v17.237H29.174Z"/></g></g></svg>