<svg xmlns="http://www.w3.org/2000/svg" width="395.32" height="395.32" viewBox="0 0 395.32 395.32"><defs><style>.a{opacity:0.6;}.b{fill:#009edc;}.c{opacity:0.4;}.d{opacity:0.8;}</style></defs><g transform="translate(-37.84 -37.839)"><g transform="translate(0 0)"><g transform="translate(37.839 37.839)"><g class="a" transform="translate(0 43.313)"><path class="b" d="M193.853,326.986c13.367,5.036,26.74,8.164,40.806,8.463,27.267.578,52.769-6.677,77.146-18.385,5.289-2.541,10.439-5.369,15.648-8.077v0l3.273-1.392-3.337-3.253v0c-41.364-41.925-66.992-91.029-67.813-151.531a21.473,21.473,0,0,0-2.569,3.97c-8.194,15.585-15.362,31.636-22,47.939-8.579,21.063-21.33,38.89-40.663,51.461-17.757,11.545-37.535,16.418-58.444,17.348-3.288.148-4.369.564-1.99,3.827C149.687,298.995,167.92,317.214,193.853,326.986Z" transform="translate(-132.626 -152.81)"/></g><g class="c" transform="translate(169.338 0)"><path class="b" d="M251.641,185.915c-5.036,13.367-8.165,26.742-8.462,40.806-.579,27.267,6.675,52.77,18.383,77.146,2.541,5.289,5.369,10.439,8.077,15.648h0l1.393,3.273,3.252-3.338,0,0c41.925-41.364,91.029-66.992,151.533-67.813a21.6,21.6,0,0,0-3.972-2.569c-15.585-8.194-31.636-15.36-47.939-22-21.063-8.579-38.891-21.328-51.461-40.663C310.9,168.649,306.028,148.87,305.1,127.961c-.147-3.288-.562-4.369-3.827-1.99C279.632,141.748,261.413,159.982,251.641,185.915Z" transform="translate(-243.147 -124.688)"/></g><g transform="translate(197.219 169.338)"><path class="b" d="M398.123,243.7c-13.367-5.036-26.74-8.164-40.806-8.462-27.267-.579-52.769,6.675-77.146,18.385-5.289,2.54-10.439,5.368-15.648,8.075v0l-3.273,1.392,3.339,3.253v0c41.364,41.925,66.992,91.031,67.813,151.532a21.52,21.52,0,0,0,2.569-3.972c8.194-15.585,15.362-31.636,22-47.939,8.579-21.063,21.33-38.89,40.663-51.461,17.756-11.545,37.535-16.418,58.444-17.348,3.288-.146,4.37-.562,1.99-3.827C442.29,271.694,424.056,253.475,398.123,243.7Z" transform="translate(-261.25 -235.209)"/></g><g class="d" transform="translate(43.313 197.219)"><path class="b" d="M334.924,390.185c5.036-13.367,8.165-26.74,8.463-40.806.577-27.266-6.677-52.769-18.385-77.146-2.541-5.289-5.369-10.439-8.077-15.648h0l-1.392-3.272-3.253,3.339h0c-41.925,41.364-91.029,66.992-151.531,67.814a21.524,21.524,0,0,0,3.971,2.567c15.585,8.194,31.636,15.362,47.939,22,21.063,8.578,38.89,21.33,51.461,40.663,11.545,17.757,16.418,37.535,17.348,58.444.146,3.288.562,4.369,3.827,1.99C306.933,434.352,325.152,416.118,334.924,390.185Z" transform="translate(-160.748 -253.312)"/></g></g></g></g></svg>