<?xml version="1.0" encoding="utf-8"?>
<!-- Generator: Adobe Illustrator 25.0.0, SVG Export Plug-In . SVG Version: 6.00 Build 0)  -->
<svg version="1.1"
	 id="svg935" xmlns:cc="http://creativecommons.org/ns#" xmlns:dc="http://purl.org/dc/elements/1.1/" xmlns:inkscape="http://www.inkscape.org/namespaces/inkscape" xmlns:rdf="http://www.w3.org/1999/02/22-rdf-syntax-ns#" xmlns:sodipodi="http://sodipodi.sourceforge.net/DTD/sodipodi-0.dtd" xmlns:svg="http://www.w3.org/2000/svg"
	 xmlns="http://www.w3.org/2000/svg" xmlns:xlink="http://www.w3.org/1999/xlink" x="0px" y="0px" viewBox="0 0 500 430"
	 style="enable-background:new 0 0 500 430;" xml:space="preserve">
<style type="text/css">
	.st0{fill:#26A17B;}
	.st1{fill:#FFFFFF;}
</style>
<g>
	<path id="path0_fill" class="st0" d="M250,0c118.7,0,215,96.3,215,215s-96.3,215-215,215S35,333.8,35,215S131.3,0,250,0z"/>
	<g id="Vector_1_" transform="translate(336.29 -181.139)">
		<path id="path1_fill" class="st1" d="M-56,372.2v-32h73.2v-48.7H-182v48.7h73.2v32c-59.4,2.7-104.2,14.5-104.2,28.6
			s44.7,25.9,104.2,28.6v102.4H-56V429.4c59.4-2.7,104-14.5,104-28.6C48,386.7,3.3,374.9-56,372.2L-56,372.2z M-56,420.7
			c-1.5,0.1-9.1,0.5-26.2,0.5c-13.7,0-23.2-0.4-26.6-0.5v0.1c-52.5-2.3-91.7-11.5-91.7-22.4s39.2-20.1,91.7-22.4v35.6
			c3.5,0.2,13.3,0.8,26.9,0.8c16.3,0,24.5-0.7,26-0.8v-35.7c52.4,2.3,91.6,11.5,91.6,22.4C35.5,409.2-3.6,418.3-56,420.7"/>
	</g>
</g>
</svg>
